<svg width="20" height="24" viewBox="0 0 20 24" fill="none" xmlns="http://www.w3.org/2000/svg">
<path d="M10.2969 5.74245C11.4063 5.74245 12.7969 5.0332 13.625 4.08754C14.375 3.23054 14.9219 2.03369 14.9219 0.836838C14.9219 0.674303 14.9063 0.511768 14.875 0.378784C13.6406 0.423112 12.1563 1.16191 11.2656 2.1519C10.5625 2.90547 9.92188 4.08754 9.92188 5.29917C9.92188 5.47648 9.95313 5.65379 9.96875 5.7129C10.0469 5.72767 10.1719 5.74245 10.2969 5.74245ZM6.39063 23.6213C7.90625 23.6213 8.57813 22.6609 10.4688 22.6609C12.3906 22.6609 12.8125 23.5918 14.5 23.5918C16.1562 23.5918 17.2656 22.1437 18.3125 20.7252C19.4844 19.0999 19.9688 17.5041 20 17.4302C19.8906 17.4007 16.7188 16.1743 16.7188 12.7315C16.7188 9.74673 19.2188 8.40212 19.3594 8.29868C17.7031 6.05274 15.1875 5.99364 14.5 5.99364C12.6406 5.99364 11.125 7.05751 10.1719 7.05751C9.14062 7.05751 7.78125 6.05274 6.17188 6.05274C3.10938 6.05274 0 8.44644 0 12.9679C0 15.7753 1.15625 18.7453 2.57812 20.6661C3.79687 22.2915 4.85938 23.6213 6.39063 23.6213Z" fill="#000100"/>
</svg>
