<svg width="20" height="22" viewBox="0 0 20 22" fill="none" xmlns="http://www.w3.org/2000/svg">
<path fill-rule="evenodd" clip-rule="evenodd" d="M20.0002 11.2335C20.0002 10.5048 19.9352 9.80404 19.8146 9.13135H10.2043V13.1068H15.6959C15.4594 14.3915 14.7404 15.4799 13.6597 16.2087V18.7874H16.9575C18.887 16.9982 20.0002 14.3634 20.0002 11.2335Z" fill="#4285F4"/>
<path fill-rule="evenodd" clip-rule="evenodd" d="M10.2041 21.2773C12.9592 21.2773 15.2691 20.357 16.9574 18.7873L13.6596 16.2087C12.7459 16.8253 11.577 17.1897 10.2041 17.1897C7.54643 17.1897 5.29689 15.3818 4.49448 12.9526H1.08539V15.6154C2.76442 18.9742 6.21526 21.2773 10.2041 21.2773Z" fill="#34A853"/>
<path fill-rule="evenodd" clip-rule="evenodd" d="M4.49443 12.9525C4.29035 12.3359 4.1744 11.6772 4.1744 10.9998C4.1744 10.3225 4.29035 9.6638 4.49443 9.04716V6.3844H1.08534C0.394249 7.77184 0 9.34146 0 10.9998C0 12.6582 0.394249 14.2279 1.08534 15.6153L4.49443 12.9525Z" fill="#FBBC05"/>
<path fill-rule="evenodd" clip-rule="evenodd" d="M10.2041 4.81023C11.7023 4.81023 13.0474 5.32876 14.1049 6.34715L17.0316 3.39943C15.2644 1.74104 12.9546 0.722656 10.2041 0.722656C6.21526 0.722656 2.76442 3.02571 1.08539 6.38452L4.49448 9.04728C5.29689 6.6181 7.54643 4.81023 10.2041 4.81023Z" fill="#EA4335" fill-opacity="0.97"/>
</svg>
